<?xml version="1.0" standalone="no"?>
<!DOCTYPE svg PUBLIC "-//W3C//DTD SVG 20010904//EN"
 "http://www.w3.org/TR/2001/REC-SVG-20010904/DTD/svg10.dtd">
<svg version="1.0" xmlns="http://www.w3.org/2000/svg"
 width="200.000000pt" height="200.000000pt" viewBox="0 0 200.000000 200.000000"
 preserveAspectRatio="xMidYMid meet">
<metadata>
Created by potrace 1.14, written by Peter Selinger 2001-2017
</metadata>
<g transform="translate(0.000000,200.000000) scale(0.100000,-0.100000)"
fill="#000000" stroke="none">
<path d="M988 1615 c-2 -1 -33 -5 -69 -8 -116 -10 -230 -45 -329 -103 -55 -31
-110 -56 -205 -90 -29 -10 -71 -37 -100 -65 -34 -32 -62 -49 -88 -54 -21 -4
-45 -14 -53 -22 -13 -13 -10 -18 22 -43 28 -21 38 -36 40 -60 1 -17 10 -48 20
-68 24 -50 29 -135 12 -202 -25 -101 -2 -131 88 -112 61 13 128 7 224 -18 109
-30 161 -52 405 -173 268 -134 304 -146 392 -144 158 6 351 144 448 320 81
148 84 302 8 451 -106 210 -333 347 -632 382 -54 7 -179 13 -183 9z m209 -69
c84 -8 116 -13 173 -31 198 -59 348 -196 409 -374 54 -157 8 -320 -132 -464
-139 -142 -276 -189 -435 -147 -19 5 -129 61 -245 124 -231 125 -334 166 -436
171 -36 1 -70 3 -76 4 -5 1 -3 8 6 16 20 21 317 92 371 89 58 -2 111 -30 175
-92 133 -127 215 -163 357 -157 99 5 236 57 236 90 0 24 -23 22 -99 -9 -64
-25 -90 -30 -166 -30 -121 -1 -160 19 -290 146 l-100 99 37 72 c62 119 180
223 299 262 55 19 61 20 137 30 42 6 52 11 52 26 0 38 -138 19 -247 -33 l-52
-25 6 43 c7 53 -28 134 -58 134 -23 0 -24 -12 -4 -49 38 -74 27 -110 -69 -226
-37 -44 -78 -102 -92 -130 -13 -27 -31 -58 -38 -68 -16 -21 -90 -45 -123 -39
l-22 3 24 38 c45 67 39 175 -15 281 -37 73 -70 110 -96 110 -32 0 -30 -16 7
-70 104 -155 116 -264 36 -341 -26 -25 -126 -74 -134 -65 -3 3 2 17 11 32 10
14 15 29 11 32 -11 12 -40 -15 -49 -47 -6 -20 -15 -31 -27 -31 -11 0 -22 0
-26 -1 -9 -1 -99 -35 -180 -68 -29 -11 -53 -18 -53 -15 0 4 9 21 20 39 22 35
72 62 140 73 52 9 68 37 26 48 -30 7 -114 -19 -149 -46 -13 -11 -26 -18 -28
-15 -3 2 -4 32 -3 67 1 34 -5 80 -12 101 -22 64 -19 70 23 47 42 -22 137 -44
159 -36 8 3 14 12 14 20 0 15 -12 20 -72 31 -46 7 -142 50 -159 71 -10 13 -10
17 2 24 30 20 156 52 196 52 23 -1 45 4 49 10 13 20 -25 36 -74 32 -57 -5 -42
8 34 31 28 8 107 44 175 79 121 63 183 82 284 89 61 3 216 0 292 -7z"/>
<path d="M584 1185 c4 -82 20 -113 52 -101 15 6 15 8 1 24 -10 11 -17 41 -19
82 -2 51 -6 65 -20 68 -15 3 -17 -6 -14 -73z"/>
<path d="M667 1046 c-7 -18 12 -34 36 -30 25 4 31 10 24 29 -8 19 -53 20 -60
1z"/>
</g>
</svg>
